%TF.GenerationSoftware,KiCad,Pcbnew,9.0.2*%
%TF.CreationDate,2025-06-27T22:36:13+12:00*%
%TF.ProjectId,cardReader,63617264-5265-4616-9465-722e6b696361,rev?*%
%TF.SameCoordinates,Original*%
%TF.FileFunction,Legend,Top*%
%TF.FilePolarity,Positive*%
%FSLAX46Y46*%
G04 Gerber Fmt 4.6, Leading zero omitted, Abs format (unit mm)*
G04 Created by KiCad (PCBNEW 9.0.2) date 2025-06-27 22:36:13*
%MOMM*%
%LPD*%
G01*
G04 APERTURE LIST*
%ADD10C,0.150000*%
%ADD11C,0.120000*%
%ADD12C,0.100000*%
%ADD13C,1.800000*%
G04 APERTURE END LIST*
D10*
X120571428Y-56917438D02*
X120571428Y-54917438D01*
X120571428Y-54917438D02*
X121333333Y-54917438D01*
X121333333Y-54917438D02*
X121523809Y-55012676D01*
X121523809Y-55012676D02*
X121619047Y-55107914D01*
X121619047Y-55107914D02*
X121714285Y-55298390D01*
X121714285Y-55298390D02*
X121714285Y-55584104D01*
X121714285Y-55584104D02*
X121619047Y-55774580D01*
X121619047Y-55774580D02*
X121523809Y-55869819D01*
X121523809Y-55869819D02*
X121333333Y-55965057D01*
X121333333Y-55965057D02*
X120571428Y-55965057D01*
X122571428Y-56917438D02*
X122571428Y-54917438D01*
X122571428Y-54917438D02*
X123714285Y-56917438D01*
X123714285Y-56917438D02*
X123714285Y-54917438D01*
X125619047Y-54917438D02*
X124666666Y-54917438D01*
X124666666Y-54917438D02*
X124571428Y-55869819D01*
X124571428Y-55869819D02*
X124666666Y-55774580D01*
X124666666Y-55774580D02*
X124857142Y-55679342D01*
X124857142Y-55679342D02*
X125333333Y-55679342D01*
X125333333Y-55679342D02*
X125523809Y-55774580D01*
X125523809Y-55774580D02*
X125619047Y-55869819D01*
X125619047Y-55869819D02*
X125714285Y-56060295D01*
X125714285Y-56060295D02*
X125714285Y-56536485D01*
X125714285Y-56536485D02*
X125619047Y-56726961D01*
X125619047Y-56726961D02*
X125523809Y-56822200D01*
X125523809Y-56822200D02*
X125333333Y-56917438D01*
X125333333Y-56917438D02*
X124857142Y-56917438D01*
X124857142Y-56917438D02*
X124666666Y-56822200D01*
X124666666Y-56822200D02*
X124571428Y-56726961D01*
X126380952Y-54917438D02*
X127619047Y-54917438D01*
X127619047Y-54917438D02*
X126952380Y-55679342D01*
X126952380Y-55679342D02*
X127238095Y-55679342D01*
X127238095Y-55679342D02*
X127428571Y-55774580D01*
X127428571Y-55774580D02*
X127523809Y-55869819D01*
X127523809Y-55869819D02*
X127619047Y-56060295D01*
X127619047Y-56060295D02*
X127619047Y-56536485D01*
X127619047Y-56536485D02*
X127523809Y-56726961D01*
X127523809Y-56726961D02*
X127428571Y-56822200D01*
X127428571Y-56822200D02*
X127238095Y-56917438D01*
X127238095Y-56917438D02*
X126666666Y-56917438D01*
X126666666Y-56917438D02*
X126476190Y-56822200D01*
X126476190Y-56822200D02*
X126380952Y-56726961D01*
X128380952Y-55107914D02*
X128476190Y-55012676D01*
X128476190Y-55012676D02*
X128666666Y-54917438D01*
X128666666Y-54917438D02*
X129142857Y-54917438D01*
X129142857Y-54917438D02*
X129333333Y-55012676D01*
X129333333Y-55012676D02*
X129428571Y-55107914D01*
X129428571Y-55107914D02*
X129523809Y-55298390D01*
X129523809Y-55298390D02*
X129523809Y-55488866D01*
X129523809Y-55488866D02*
X129428571Y-55774580D01*
X129428571Y-55774580D02*
X128285714Y-56917438D01*
X128285714Y-56917438D02*
X129523809Y-56917438D01*
X107078095Y-84144819D02*
X107078095Y-84954342D01*
X107078095Y-84954342D02*
X107125714Y-85049580D01*
X107125714Y-85049580D02*
X107173333Y-85097200D01*
X107173333Y-85097200D02*
X107268571Y-85144819D01*
X107268571Y-85144819D02*
X107459047Y-85144819D01*
X107459047Y-85144819D02*
X107554285Y-85097200D01*
X107554285Y-85097200D02*
X107601904Y-85049580D01*
X107601904Y-85049580D02*
X107649523Y-84954342D01*
X107649523Y-84954342D02*
X107649523Y-84144819D01*
X108078095Y-84240057D02*
X108125714Y-84192438D01*
X108125714Y-84192438D02*
X108220952Y-84144819D01*
X108220952Y-84144819D02*
X108459047Y-84144819D01*
X108459047Y-84144819D02*
X108554285Y-84192438D01*
X108554285Y-84192438D02*
X108601904Y-84240057D01*
X108601904Y-84240057D02*
X108649523Y-84335295D01*
X108649523Y-84335295D02*
X108649523Y-84430533D01*
X108649523Y-84430533D02*
X108601904Y-84573390D01*
X108601904Y-84573390D02*
X108030476Y-85144819D01*
X108030476Y-85144819D02*
X108649523Y-85144819D01*
X101284285Y-52020057D02*
X100284285Y-50591485D01*
X99569999Y-52020057D02*
X99569999Y-49020057D01*
X99569999Y-49020057D02*
X100712856Y-49020057D01*
X100712856Y-49020057D02*
X100998571Y-49162914D01*
X100998571Y-49162914D02*
X101141428Y-49305771D01*
X101141428Y-49305771D02*
X101284285Y-49591485D01*
X101284285Y-49591485D02*
X101284285Y-50020057D01*
X101284285Y-50020057D02*
X101141428Y-50305771D01*
X101141428Y-50305771D02*
X100998571Y-50448628D01*
X100998571Y-50448628D02*
X100712856Y-50591485D01*
X100712856Y-50591485D02*
X99569999Y-50591485D01*
X103712856Y-51877200D02*
X103427142Y-52020057D01*
X103427142Y-52020057D02*
X102855714Y-52020057D01*
X102855714Y-52020057D02*
X102569999Y-51877200D01*
X102569999Y-51877200D02*
X102427142Y-51591485D01*
X102427142Y-51591485D02*
X102427142Y-50448628D01*
X102427142Y-50448628D02*
X102569999Y-50162914D01*
X102569999Y-50162914D02*
X102855714Y-50020057D01*
X102855714Y-50020057D02*
X103427142Y-50020057D01*
X103427142Y-50020057D02*
X103712856Y-50162914D01*
X103712856Y-50162914D02*
X103855714Y-50448628D01*
X103855714Y-50448628D02*
X103855714Y-50734342D01*
X103855714Y-50734342D02*
X102427142Y-51020057D01*
X106427143Y-52020057D02*
X106427143Y-50448628D01*
X106427143Y-50448628D02*
X106284285Y-50162914D01*
X106284285Y-50162914D02*
X105998571Y-50020057D01*
X105998571Y-50020057D02*
X105427143Y-50020057D01*
X105427143Y-50020057D02*
X105141428Y-50162914D01*
X106427143Y-51877200D02*
X106141428Y-52020057D01*
X106141428Y-52020057D02*
X105427143Y-52020057D01*
X105427143Y-52020057D02*
X105141428Y-51877200D01*
X105141428Y-51877200D02*
X104998571Y-51591485D01*
X104998571Y-51591485D02*
X104998571Y-51305771D01*
X104998571Y-51305771D02*
X105141428Y-51020057D01*
X105141428Y-51020057D02*
X105427143Y-50877200D01*
X105427143Y-50877200D02*
X106141428Y-50877200D01*
X106141428Y-50877200D02*
X106427143Y-50734342D01*
X109141429Y-52020057D02*
X109141429Y-49020057D01*
X109141429Y-51877200D02*
X108855714Y-52020057D01*
X108855714Y-52020057D02*
X108284286Y-52020057D01*
X108284286Y-52020057D02*
X107998571Y-51877200D01*
X107998571Y-51877200D02*
X107855714Y-51734342D01*
X107855714Y-51734342D02*
X107712857Y-51448628D01*
X107712857Y-51448628D02*
X107712857Y-50591485D01*
X107712857Y-50591485D02*
X107855714Y-50305771D01*
X107855714Y-50305771D02*
X107998571Y-50162914D01*
X107998571Y-50162914D02*
X108284286Y-50020057D01*
X108284286Y-50020057D02*
X108855714Y-50020057D01*
X108855714Y-50020057D02*
X109141429Y-50162914D01*
X111712857Y-51877200D02*
X111427143Y-52020057D01*
X111427143Y-52020057D02*
X110855715Y-52020057D01*
X110855715Y-52020057D02*
X110570000Y-51877200D01*
X110570000Y-51877200D02*
X110427143Y-51591485D01*
X110427143Y-51591485D02*
X110427143Y-50448628D01*
X110427143Y-50448628D02*
X110570000Y-50162914D01*
X110570000Y-50162914D02*
X110855715Y-50020057D01*
X110855715Y-50020057D02*
X111427143Y-50020057D01*
X111427143Y-50020057D02*
X111712857Y-50162914D01*
X111712857Y-50162914D02*
X111855715Y-50448628D01*
X111855715Y-50448628D02*
X111855715Y-50734342D01*
X111855715Y-50734342D02*
X110427143Y-51020057D01*
X113141429Y-52020057D02*
X113141429Y-50020057D01*
X113141429Y-50591485D02*
X113284286Y-50305771D01*
X113284286Y-50305771D02*
X113427144Y-50162914D01*
X113427144Y-50162914D02*
X113712858Y-50020057D01*
X113712858Y-50020057D02*
X113998572Y-50020057D01*
X80271895Y-84144819D02*
X80271895Y-84954342D01*
X80271895Y-84954342D02*
X80319514Y-85049580D01*
X80319514Y-85049580D02*
X80367133Y-85097200D01*
X80367133Y-85097200D02*
X80462371Y-85144819D01*
X80462371Y-85144819D02*
X80652847Y-85144819D01*
X80652847Y-85144819D02*
X80748085Y-85097200D01*
X80748085Y-85097200D02*
X80795704Y-85049580D01*
X80795704Y-85049580D02*
X80843323Y-84954342D01*
X80843323Y-84954342D02*
X80843323Y-84144819D01*
X81843323Y-85144819D02*
X81271895Y-85144819D01*
X81557609Y-85144819D02*
X81557609Y-84144819D01*
X81557609Y-84144819D02*
X81462371Y-84287676D01*
X81462371Y-84287676D02*
X81367133Y-84382914D01*
X81367133Y-84382914D02*
X81271895Y-84430533D01*
X73335228Y-51877200D02*
X73763800Y-52020057D01*
X73763800Y-52020057D02*
X74478085Y-52020057D01*
X74478085Y-52020057D02*
X74763800Y-51877200D01*
X74763800Y-51877200D02*
X74906657Y-51734342D01*
X74906657Y-51734342D02*
X75049514Y-51448628D01*
X75049514Y-51448628D02*
X75049514Y-51162914D01*
X75049514Y-51162914D02*
X74906657Y-50877200D01*
X74906657Y-50877200D02*
X74763800Y-50734342D01*
X74763800Y-50734342D02*
X74478085Y-50591485D01*
X74478085Y-50591485D02*
X73906657Y-50448628D01*
X73906657Y-50448628D02*
X73620942Y-50305771D01*
X73620942Y-50305771D02*
X73478085Y-50162914D01*
X73478085Y-50162914D02*
X73335228Y-49877200D01*
X73335228Y-49877200D02*
X73335228Y-49591485D01*
X73335228Y-49591485D02*
X73478085Y-49305771D01*
X73478085Y-49305771D02*
X73620942Y-49162914D01*
X73620942Y-49162914D02*
X73906657Y-49020057D01*
X73906657Y-49020057D02*
X74620942Y-49020057D01*
X74620942Y-49020057D02*
X75049514Y-49162914D01*
X77478085Y-51877200D02*
X77192371Y-52020057D01*
X77192371Y-52020057D02*
X76620943Y-52020057D01*
X76620943Y-52020057D02*
X76335228Y-51877200D01*
X76335228Y-51877200D02*
X76192371Y-51591485D01*
X76192371Y-51591485D02*
X76192371Y-50448628D01*
X76192371Y-50448628D02*
X76335228Y-50162914D01*
X76335228Y-50162914D02*
X76620943Y-50020057D01*
X76620943Y-50020057D02*
X77192371Y-50020057D01*
X77192371Y-50020057D02*
X77478085Y-50162914D01*
X77478085Y-50162914D02*
X77620943Y-50448628D01*
X77620943Y-50448628D02*
X77620943Y-50734342D01*
X77620943Y-50734342D02*
X76192371Y-51020057D01*
X78906657Y-52020057D02*
X78906657Y-50020057D01*
X78906657Y-50591485D02*
X79049514Y-50305771D01*
X79049514Y-50305771D02*
X79192372Y-50162914D01*
X79192372Y-50162914D02*
X79478086Y-50020057D01*
X79478086Y-50020057D02*
X79763800Y-50020057D01*
X80478086Y-50020057D02*
X81192372Y-52020057D01*
X81192372Y-52020057D02*
X81906657Y-50020057D01*
X84192371Y-51877200D02*
X83906657Y-52020057D01*
X83906657Y-52020057D02*
X83335229Y-52020057D01*
X83335229Y-52020057D02*
X83049514Y-51877200D01*
X83049514Y-51877200D02*
X82906657Y-51591485D01*
X82906657Y-51591485D02*
X82906657Y-50448628D01*
X82906657Y-50448628D02*
X83049514Y-50162914D01*
X83049514Y-50162914D02*
X83335229Y-50020057D01*
X83335229Y-50020057D02*
X83906657Y-50020057D01*
X83906657Y-50020057D02*
X84192371Y-50162914D01*
X84192371Y-50162914D02*
X84335229Y-50448628D01*
X84335229Y-50448628D02*
X84335229Y-50734342D01*
X84335229Y-50734342D02*
X82906657Y-51020057D01*
X85620943Y-52020057D02*
X85620943Y-50020057D01*
X85620943Y-50591485D02*
X85763800Y-50305771D01*
X85763800Y-50305771D02*
X85906658Y-50162914D01*
X85906658Y-50162914D02*
X86192372Y-50020057D01*
X86192372Y-50020057D02*
X86478086Y-50020057D01*
D11*
%TO.C,PN532*%
X123620000Y-58120000D02*
X125000000Y-58120000D01*
X123620000Y-59500000D02*
X123620000Y-58120000D01*
X123620000Y-60770000D02*
X123620000Y-68500000D01*
X123620000Y-60770000D02*
X126380000Y-60770000D01*
X123620000Y-68500000D02*
X126380000Y-68500000D01*
X126380000Y-60770000D02*
X126380000Y-68500000D01*
D12*
%TO.C,U2*%
X93639807Y-82056658D02*
X93653805Y-50886507D01*
X93653805Y-50886507D02*
X93886616Y-50283714D01*
X93886616Y-50283714D02*
X94170099Y-49738833D01*
X94170099Y-49738833D02*
X94504747Y-49252423D01*
X94504747Y-49252423D02*
X94891047Y-48825048D01*
X94891047Y-48825048D02*
X95329488Y-48457259D01*
X95329488Y-48457259D02*
X95820560Y-48149623D01*
X95820560Y-48149623D02*
X96364750Y-47902690D01*
X96364750Y-47902690D02*
X96962547Y-47717024D01*
X96962547Y-47717024D02*
X116000460Y-47688266D01*
X102718627Y-80880483D02*
X102720603Y-82082736D01*
X102720603Y-82082736D02*
X93639807Y-82056658D01*
X103390350Y-75931451D02*
X110529931Y-75931451D01*
X103390350Y-81745188D02*
X103390350Y-75931451D01*
X110529931Y-75931451D02*
X110529931Y-81745188D01*
X110529931Y-81745188D02*
X103390350Y-81745188D01*
X111549849Y-80873795D02*
X102718627Y-80880483D01*
X111576180Y-82157228D02*
X111549849Y-80873795D01*
X113979850Y-75811515D02*
X113979850Y-80873876D01*
X113979850Y-80873876D02*
X115267489Y-80873876D01*
X115232211Y-75811515D02*
X113979850Y-75811515D01*
X115267489Y-80873876D02*
X115796656Y-81367765D01*
X115761378Y-75282349D02*
X115232211Y-75811515D01*
X115796656Y-81367765D02*
X117366517Y-81367765D01*
X116000460Y-47688266D02*
X116619824Y-47922259D01*
X116619824Y-47922259D02*
X117208018Y-48206742D01*
X117208018Y-48206742D02*
X117751445Y-48556257D01*
X117313600Y-75282349D02*
X115761378Y-75282349D01*
X117348878Y-77363738D02*
X118001517Y-77363738D01*
X117366517Y-81367765D02*
X117313600Y-75282349D01*
X117387472Y-82157228D02*
X111576180Y-82157228D01*
X117402480Y-75304181D02*
X117372686Y-82112524D01*
X117751445Y-48556257D02*
X118236503Y-48985342D01*
X118001517Y-77363738D02*
X118001517Y-79356932D01*
X118001517Y-79356932D02*
X117384156Y-79356932D01*
X118236503Y-48985342D02*
X118649595Y-49508540D01*
X118649595Y-49508540D02*
X118977122Y-50140387D01*
X118977122Y-50140387D02*
X119205482Y-50895425D01*
X119205482Y-50895425D02*
X119321078Y-51788193D01*
X119321078Y-51788193D02*
X119346026Y-74343285D01*
X119346026Y-74343285D02*
X117402480Y-75304181D01*
%TO.C,U1*%
X66833607Y-82056658D02*
X66847605Y-50886507D01*
X66847605Y-50886507D02*
X67080416Y-50283714D01*
X67080416Y-50283714D02*
X67363899Y-49738833D01*
X67363899Y-49738833D02*
X67698547Y-49252423D01*
X67698547Y-49252423D02*
X68084847Y-48825048D01*
X68084847Y-48825048D02*
X68523288Y-48457259D01*
X68523288Y-48457259D02*
X69014360Y-48149623D01*
X69014360Y-48149623D02*
X69558550Y-47902690D01*
X69558550Y-47902690D02*
X70156347Y-47717024D01*
X70156347Y-47717024D02*
X89194260Y-47688266D01*
X75912427Y-80880483D02*
X75914403Y-82082736D01*
X75914403Y-82082736D02*
X66833607Y-82056658D01*
X76584150Y-75931451D02*
X83723731Y-75931451D01*
X76584150Y-81745188D02*
X76584150Y-75931451D01*
X83723731Y-75931451D02*
X83723731Y-81745188D01*
X83723731Y-81745188D02*
X76584150Y-81745188D01*
X84743649Y-80873795D02*
X75912427Y-80880483D01*
X84769980Y-82157228D02*
X84743649Y-80873795D01*
X87173650Y-75811515D02*
X87173650Y-80873876D01*
X87173650Y-80873876D02*
X88461289Y-80873876D01*
X88426011Y-75811515D02*
X87173650Y-75811515D01*
X88461289Y-80873876D02*
X88990456Y-81367765D01*
X88955178Y-75282349D02*
X88426011Y-75811515D01*
X88990456Y-81367765D02*
X90560317Y-81367765D01*
X89194260Y-47688266D02*
X89813624Y-47922259D01*
X89813624Y-47922259D02*
X90401818Y-48206742D01*
X90401818Y-48206742D02*
X90945245Y-48556257D01*
X90507400Y-75282349D02*
X88955178Y-75282349D01*
X90542678Y-77363738D02*
X91195317Y-77363738D01*
X90560317Y-81367765D02*
X90507400Y-75282349D01*
X90581272Y-82157228D02*
X84769980Y-82157228D01*
X90596280Y-75304181D02*
X90566486Y-82112524D01*
X90945245Y-48556257D02*
X91430303Y-48985342D01*
X91195317Y-77363738D02*
X91195317Y-79356932D01*
X91195317Y-79356932D02*
X90577956Y-79356932D01*
X91430303Y-48985342D02*
X91843395Y-49508540D01*
X91843395Y-49508540D02*
X92170922Y-50140387D01*
X92170922Y-50140387D02*
X92399282Y-50895425D01*
X92399282Y-50895425D02*
X92514878Y-51788193D01*
X92514878Y-51788193D02*
X92539826Y-74343285D01*
X92539826Y-74343285D02*
X90596280Y-75304181D01*
%TD*%
D13*
%TO.C,U2*%
X95140000Y-73500000D03*
X95140000Y-70960000D03*
X95140000Y-68420000D03*
X95140000Y-65880000D03*
X95140000Y-63340000D03*
X95140000Y-60800000D03*
X95140000Y-58260000D03*
X95140000Y-55720000D03*
X118000000Y-55720000D03*
X118000000Y-58260000D03*
X118000000Y-60800000D03*
X118000000Y-63340000D03*
X118000000Y-65880000D03*
X118000000Y-68420000D03*
X118000000Y-70960000D03*
X118000000Y-73500000D03*
%TD*%
%TO.C,U1*%
X68333800Y-73500000D03*
X68333800Y-70960000D03*
X68333800Y-68420000D03*
X68333800Y-65880000D03*
X68333800Y-63340000D03*
X68333800Y-60800000D03*
X68333800Y-58260000D03*
X68333800Y-55720000D03*
X91193800Y-55720000D03*
X91193800Y-58260000D03*
X91193800Y-60800000D03*
X91193800Y-63340000D03*
X91193800Y-65880000D03*
X91193800Y-68420000D03*
X91193800Y-70960000D03*
X91193800Y-73500000D03*
%TD*%
M02*
