%TF.GenerationSoftware,KiCad,Pcbnew,9.0.2*%
%TF.CreationDate,2025-06-27T22:36:12+12:00*%
%TF.ProjectId,cardReader,63617264-5265-4616-9465-722e6b696361,rev?*%
%TF.SameCoordinates,Original*%
%TF.FileFunction,Copper,L1,Top*%
%TF.FilePolarity,Positive*%
%FSLAX46Y46*%
G04 Gerber Fmt 4.6, Leading zero omitted, Abs format (unit mm)*
G04 Created by KiCad (PCBNEW 9.0.2) date 2025-06-27 22:36:12*
%MOMM*%
%LPD*%
G01*
G04 APERTURE LIST*
%TA.AperFunction,ComponentPad*%
%ADD10R,1.700000X1.700000*%
%TD*%
%TA.AperFunction,ComponentPad*%
%ADD11C,1.700000*%
%TD*%
%TA.AperFunction,ComponentPad*%
%ADD12C,1.800000*%
%TD*%
%TA.AperFunction,ViaPad*%
%ADD13C,0.600000*%
%TD*%
%TA.AperFunction,Conductor*%
%ADD14C,0.200000*%
%TD*%
G04 APERTURE END LIST*
D10*
%TO.P,PN532,1,Pin_1*%
%TO.N,Net-(J1-Pin_1)*%
X125000000Y-59500000D03*
D11*
%TO.P,PN532,2,Pin_2*%
%TO.N,Net-(J1-Pin_2)*%
X125000000Y-62040000D03*
%TO.P,PN532,3,Pin_3*%
%TO.N,Net-(J1-Pin_3)*%
X125000000Y-64580000D03*
%TO.P,PN532,4,Pin_4*%
%TO.N,Net-(J1-Pin_4)*%
X125000000Y-67120000D03*
%TD*%
D12*
%TO.P,U2,1,5V*%
%TO.N,Net-(J1-Pin_2)*%
X95140000Y-73500000D03*
%TO.P,U2,2,GND*%
%TO.N,Net-(J1-Pin_1)*%
X95140000Y-70960000D03*
%TO.P,U2,3,D4*%
%TO.N,unconnected-(U2-D4-Pad3)*%
X95140000Y-68420000D03*
%TO.P,U2,4,D3*%
%TO.N,unconnected-(U2-D3-Pad4)*%
X95140000Y-65880000D03*
%TO.P,U2,5,D2*%
%TO.N,Net-(J1-Pin_3)*%
X95140000Y-63340000D03*
%TO.P,U2,6,D1*%
%TO.N,Net-(J1-Pin_4)*%
X95140000Y-60800000D03*
%TO.P,U2,7,Rx*%
%TO.N,unconnected-(U2-Rx-Pad7)*%
X95140000Y-58260000D03*
%TO.P,U2,8,Tx*%
%TO.N,unconnected-(U2-Tx-Pad8)*%
X95140000Y-55720000D03*
%TO.P,U2,9,Rst*%
%TO.N,unconnected-(U2-Rst-Pad9)*%
X118000000Y-55720000D03*
%TO.P,U2,10,A0*%
%TO.N,unconnected-(U2-A0-Pad10)*%
X118000000Y-58260000D03*
%TO.P,U2,11,D0*%
%TO.N,unconnected-(U2-D0-Pad11)*%
X118000000Y-60800000D03*
%TO.P,U2,12,D5*%
%TO.N,unconnected-(U2-D5-Pad12)*%
X118000000Y-63340000D03*
%TO.P,U2,13,D6*%
%TO.N,Net-(U1-D7)*%
X118000000Y-65880000D03*
%TO.P,U2,14,D7*%
%TO.N,Net-(U1-D6)*%
X118000000Y-68420000D03*
%TO.P,U2,15,D8*%
%TO.N,unconnected-(U2-D8-Pad15)*%
X118000000Y-70960000D03*
%TO.P,U2,16,3.3V*%
%TO.N,unconnected-(U2-3.3V-Pad16)*%
X118000000Y-73500000D03*
%TD*%
%TO.P,U1,1,5V*%
%TO.N,Net-(J1-Pin_2)*%
X68333800Y-73500000D03*
%TO.P,U1,2,GND*%
%TO.N,Net-(J1-Pin_1)*%
X68333800Y-70960000D03*
%TO.P,U1,3,D4*%
%TO.N,unconnected-(U1-D4-Pad3)*%
X68333800Y-68420000D03*
%TO.P,U1,4,D3*%
%TO.N,unconnected-(U1-D3-Pad4)*%
X68333800Y-65880000D03*
%TO.P,U1,5,D2*%
%TO.N,unconnected-(U1-D2-Pad5)*%
X68333800Y-63340000D03*
%TO.P,U1,6,D1*%
%TO.N,unconnected-(U1-D1-Pad6)*%
X68333800Y-60800000D03*
%TO.P,U1,7,Rx*%
%TO.N,unconnected-(U1-Rx-Pad7)*%
X68333800Y-58260000D03*
%TO.P,U1,8,Tx*%
%TO.N,unconnected-(U1-Tx-Pad8)*%
X68333800Y-55720000D03*
%TO.P,U1,9,Rst*%
%TO.N,unconnected-(U1-Rst-Pad9)*%
X91193800Y-55720000D03*
%TO.P,U1,10,A0*%
%TO.N,unconnected-(U1-A0-Pad10)*%
X91193800Y-58260000D03*
%TO.P,U1,11,D0*%
%TO.N,unconnected-(U1-D0-Pad11)*%
X91193800Y-60800000D03*
%TO.P,U1,12,D5*%
%TO.N,unconnected-(U1-D5-Pad12)*%
X91193800Y-63340000D03*
%TO.P,U1,13,D6*%
%TO.N,Net-(U1-D6)*%
X91193800Y-65880000D03*
%TO.P,U1,14,D7*%
%TO.N,Net-(U1-D7)*%
X91193800Y-68420000D03*
%TO.P,U1,15,D8*%
%TO.N,unconnected-(U1-D8-Pad15)*%
X91193800Y-70960000D03*
%TO.P,U1,16,3.3V*%
%TO.N,unconnected-(U1-3.3V-Pad16)*%
X91193800Y-73500000D03*
%TD*%
D13*
%TO.N,Net-(U1-D6)*%
X115823000Y-66774800D03*
%TO.N,Net-(J1-Pin_1)*%
X125334000Y-68706300D03*
%TD*%
D14*
%TO.N,Net-(U1-D6)*%
X95705700Y-64610000D02*
X92463800Y-64610000D01*
X115728000Y-66679800D02*
X115823000Y-66774800D01*
X115823000Y-66774800D02*
X115728000Y-66679800D01*
X115823000Y-66774800D02*
X115728000Y-66679800D01*
X97775500Y-66679800D02*
X95705700Y-64610000D01*
X92463800Y-64610000D02*
X91193800Y-65880000D01*
X115728000Y-66679800D02*
X97775500Y-66679800D01*
%TO.N,Net-(U1-D7)*%
X115347400Y-67150000D02*
X115573900Y-67376500D01*
X92463800Y-67150000D02*
X115347400Y-67150000D01*
X115573900Y-67376500D02*
X116503500Y-67376500D01*
X116503500Y-67376500D02*
X118000000Y-65880000D01*
X91193800Y-68420000D02*
X92463800Y-67150000D01*
%TO.N,Net-(J1-Pin_1)*%
X69603800Y-69690000D02*
X68333800Y-70960000D01*
X95140000Y-69690000D02*
X69603800Y-69690000D01*
X125334000Y-68706300D02*
X124350300Y-69690000D01*
X124350300Y-69690000D02*
X95140000Y-69690000D01*
X95140000Y-69690000D02*
X95140000Y-70960000D01*
X125334000Y-68706300D02*
X124350300Y-69690000D01*
X124350300Y-69690000D02*
X125334000Y-68706300D01*
%TO.N,Net-(J1-Pin_2)*%
X95140000Y-73500000D02*
X96410000Y-72230000D01*
X126576300Y-63616300D02*
X125000000Y-62040000D01*
X96410000Y-72230000D02*
X122661400Y-72230000D01*
X68333800Y-73500000D02*
X69536300Y-72297500D01*
X93937500Y-72297500D02*
X95140000Y-73500000D01*
X126576300Y-68315100D02*
X126576300Y-63616300D01*
X69536300Y-72297500D02*
X93937500Y-72297500D01*
X122661400Y-72230000D02*
X126576300Y-68315100D01*
%TO.N,Net-(J1-Pin_4)*%
X96410000Y-62070000D02*
X95140000Y-60800000D01*
X125000000Y-67120000D02*
X126156900Y-65963100D01*
X126156900Y-64091200D02*
X125375700Y-63310000D01*
X125375700Y-63310000D02*
X123402300Y-63310000D01*
X126156900Y-65963100D02*
X126156900Y-64091200D01*
X123402300Y-63310000D02*
X122162300Y-62070000D01*
X122162300Y-62070000D02*
X96410000Y-62070000D01*
%TO.N,Net-(J1-Pin_3)*%
X96380000Y-64580000D02*
X95140000Y-63340000D01*
X125000000Y-64580000D02*
X96380000Y-64580000D01*
%TD*%
M02*
