M48
; DRILL file {KiCad 9.0.2} date 2025-06-27T22:48:32+1200
; FORMAT={-:-/ absolute / metric / decimal}
; #@! TF.CreationDate,2025-06-27T22:48:32+12:00
; #@! TF.GenerationSoftware,Kicad,Pcbnew,9.0.2
; #@! TF.FileFunction,Plated,1,2,PTH
FMAT,2
METRIC
; #@! TA.AperFunction,Plated,PTH,ViaDrill
T1C0.300
; #@! TA.AperFunction,Plated,PTH,ComponentDrill
T2C1.000
; #@! TA.AperFunction,Plated,PTH,ComponentDrill
T3C1.016
%
G90
G05
T1
X115.823Y-66.775
X125.334Y-68.706
T2
X125.0Y-59.5
X125.0Y-62.04
X125.0Y-64.58
X125.0Y-67.12
T3
X68.334Y-55.72
X68.334Y-58.26
X68.334Y-60.8
X68.334Y-63.34
X68.334Y-65.88
X68.334Y-68.42
X68.334Y-70.96
X68.334Y-73.5
X91.194Y-55.72
X91.194Y-58.26
X91.194Y-60.8
X91.194Y-63.34
X91.194Y-65.88
X91.194Y-68.42
X91.194Y-70.96
X91.194Y-73.5
X95.14Y-55.72
X95.14Y-58.26
X95.14Y-60.8
X95.14Y-63.34
X95.14Y-65.88
X95.14Y-68.42
X95.14Y-70.96
X95.14Y-73.5
X118.0Y-55.72
X118.0Y-58.26
X118.0Y-60.8
X118.0Y-63.34
X118.0Y-65.88
X118.0Y-68.42
X118.0Y-70.96
X118.0Y-73.5
M30
